<svg xmlns="http://www.w3.org/2000/svg" xmlns:xlink="http://www.w3.org/1999/xlink" viewBox="0 0 26 26" fill="#FFFFFF">
  <path d="M9 5L9 7L7 7L7 20L9 20L9 22L11 22L11 20L13 20L13 22L15 22L15 19.90625C15.265625 19.871094 15.554688 19.855469 15.8125 19.8125C16.414063 19.613281 16.90625 19.394531 17.40625 19.09375C17.804688 18.792969 18.199219 18.40625 18.5 17.90625C18.800781 17.40625 18.90625 16.886719 18.90625 16.1875C18.90625 15.386719 18.585938 14.695313 18.1875 14.09375C17.6875 13.492188 17.085938 13.105469 16.1875 12.90625C16.886719 12.605469 17.386719 12.210938 17.6875 11.8125C17.988281 11.414063 18.1875 10.886719 18.1875 10.1875C18.1875 9.585938 18.105469 9.085938 17.90625 8.6875C17.707031 8.289063 17.398438 7.886719 17 7.6875C16.601563 7.488281 16.195313 7.289063 15.59375 7.1875C15.398438 7.15625 15.199219 7.125 15 7.09375L15 5L13 5L13 7L11 7L11 5 Z M 10 9L12.90625 9C13.207031 9 13.488281 8.992188 13.6875 9.09375C13.988281 9.09375 14.207031 9.210938 14.40625 9.3125C14.605469 9.414063 14.804688 9.488281 14.90625 9.6875C15.007813 9.886719 15.09375 10.105469 15.09375 10.40625C15.09375 11.007813 14.992188 11.394531 14.59375 11.59375C14.195313 11.894531 13.789063 12 13.1875 12L10 12 Z M 10 14L13.5 14C14.199219 14 14.8125 14.199219 15.3125 14.5C15.8125 14.800781 16 15.394531 16 16.09375C16 16.394531 15.914063 16.800781 15.8125 17C15.613281 17.300781 15.386719 17.492188 15.1875 17.59375C14.988281 17.695313 14.707031 17.804688 14.40625 17.90625C14.105469 18.007813 13.707031 18 13.40625 18L10 18Z" fill="#FFFFFF" />
</svg>