<svg xmlns="http://www.w3.org/2000/svg" xmlns:xlink="http://www.w3.org/1999/xlink" viewBox="0 0 32 32" fill="#F7F7F7">
  <path d="M16 4C9.3844239 4 4 9.3844287 4 16C4 22.615571 9.3844239 28 16 28C22.615576 28 28 22.615571 28 16C28 9.3844287 22.615576 4 16 4 z M 16 6C21.534697 6 26 10.465307 26 16C26 21.534693 21.534697 26 16 26C10.465303 26 6 21.534693 6 16C6 10.465307 10.465303 6 16 6 z M 15.029297 8.7558594L13.460938 14.992188L10.289062 15.992188L10.892578 17.900391L12.886719 17.269531L11.697266 22L21 22L21 20L14.261719 20L15.126953 16.5625L18.876953 15.378906L18.273438 13.472656L15.701172 14.285156L16.970703 9.2441406L15.029297 8.7558594 z" fill="#FFFFFF" />
</svg>